<svg width="192" height="192" viewBox="0 0 192 192" fill="none" xmlns="http://www.w3.org/2000/svg">
<g clip-path="url(#clip0_30_13)">
<rect x="2" y="2" width="188" height="188" rx="47" fill="url(#paint0_radial_30_13)" stroke="#483D8B" stroke-width="4"/>
<g clip-path="url(#clip1_30_13)">
<path d="M146 115.063C146.001 107.902 143.518 100.962 138.974 95.4279C134.43 89.8933 128.107 86.1064 121.083 84.7129C120.678 89.1453 119.541 93.4798 117.717 97.5396C123.137 99.3711 126.621 103.529 127.438 109.432H130.531V112.068H127.648V114.753C127.652 115.042 127.644 115.32 127.623 115.589H130.531V118.231H127.369C125.977 125.953 119.932 130.531 110.849 130.531C108.894 130.531 107.198 130.34 105.781 130.005V125.47C107.437 125.836 109.129 126.006 110.824 125.977C116.51 125.977 120.34 123.094 121.553 118.231H109.692V115.589H121.943C121.959 115.3 121.966 114.997 121.962 114.679V112.068H109.692V109.426H121.683C120.953 105.701 118.787 103.053 115.465 101.821C112.207 107.217 107.726 111.772 102.384 115.117C97.0428 118.463 90.9895 120.507 84.7128 121.083C86.2303 128.598 90.4828 135.282 96.6465 139.84C102.81 144.399 110.446 146.508 118.076 145.758C125.706 145.009 132.786 141.454 137.944 135.784C143.103 130.113 145.974 122.729 146 115.063ZM47 81.0314C47 72.0057 50.5854 63.3497 56.9675 56.9676C63.3496 50.5855 72.0056 47.0001 81.0312 47.0001C90.0569 47.0001 98.7129 50.5855 105.095 56.9676C111.477 63.3497 115.062 72.0057 115.062 81.0314C115.062 90.057 111.477 98.713 105.095 105.095C98.7129 111.477 90.0569 115.063 81.0312 115.063C72.0056 115.063 63.3496 111.477 56.9675 105.095C50.5854 98.713 47 90.057 47 81.0314ZM94.9531 72.8515C94.5262 67.6849 90.3373 63.6631 82.8009 63.1866V59.3751H79.4596V63.2114C71.6696 63.7435 67.1094 67.7901 67.1094 73.6682C67.1094 79.0204 70.5929 81.7739 76.8237 83.197L79.4596 83.8157V94.186C76.1184 93.8148 73.9899 92.0389 73.4825 89.5763H67.6167C68.0499 94.5511 72.4368 98.443 79.4596 98.8699V102.688H82.8009V98.7957C89.4586 98.1584 93.9879 94.2664 93.9879 88.7596C93.9879 83.89 90.6219 80.7901 85.016 79.5216L82.8009 78.9957V67.9819C86.2288 68.4769 88.4934 70.3084 89.0069 72.8515H94.9531ZM82.8256 84.5768C86.1174 85.3193 87.8994 86.8291 87.8994 89.1061C87.8994 91.6429 85.9751 93.5549 82.8009 94.1118V84.583H82.8318L82.8256 84.5768ZM78.977 78.1171C74.9861 77.2199 73.1422 75.7658 73.1422 73.1918C73.1422 70.2589 75.4316 68.2418 79.4534 67.8706V78.2284L78.977 78.1171Z" fill="#483D8B"/>
</g>
</g>
<defs>
<radialGradient id="paint0_radial_30_13" cx="0" cy="0" r="1" gradientUnits="userSpaceOnUse" gradientTransform="translate(96 96) rotate(90) scale(251)">
<stop offset="0.419075" stop-color="#D3D3D3"/>
<stop offset="1" stop-color="#6D6D6D"/>
</radialGradient>
<clipPath id="clip0_30_13">
<rect width="192" height="192" fill="white"/>
</clipPath>
<clipPath id="clip1_30_13">
<rect width="99" height="99" fill="white" transform="matrix(-1 0 0 -1 146 146)"/>
</clipPath>
</defs>
</svg>
